<svg width="23" height="24" viewBox="0 0 23 24" fill="none" xmlns="http://www.w3.org/2000/svg">
<path d="M11.2117 8.26688e-09C12.1989 -6.44109e-05 13.1487 0.37636 13.8662 1.05206C14.5838 1.72775 15.0147 2.65149 15.0706 3.63378L15.0766 3.85185H21.3199C21.5459 3.85192 21.7634 3.93747 21.9285 4.09123C22.0936 4.24498 22.194 4.45547 22.2094 4.68015C22.2248 4.90484 22.1541 5.12698 22.0115 5.30169C21.8689 5.47639 21.6651 5.59064 21.4412 5.62133L21.3199 5.62963H20.3733L18.8511 21.0607C18.7748 21.8301 18.4267 22.5473 17.8688 23.0844C17.3109 23.6215 16.5796 23.9435 15.8055 23.9929L15.5962 24H6.82706C6.05106 24 5.30035 23.7249 4.70909 23.2241C4.11784 22.7232 3.72457 22.0291 3.59956 21.2658L3.57221 21.0596L2.04884 5.62963H1.10342C0.887892 5.62962 0.679657 5.55183 0.517225 5.41065C0.354794 5.26946 0.249154 5.07443 0.219842 4.86163L0.211517 4.74074C0.211526 4.52594 0.28958 4.31841 0.431243 4.15653C0.572906 3.99464 0.768596 3.88936 0.982121 3.86015L1.10342 3.85185H7.34674C7.34674 2.83028 7.75394 1.85054 8.47875 1.12818C9.20356 0.405819 10.1866 8.26689e-09 11.2117 8.26688e-09V8.26688e-09ZM18.5811 5.62963H3.84097L5.34769 20.8853C5.38105 21.2257 5.53157 21.5441 5.77369 21.7865C6.01581 22.0289 6.33463 22.1803 6.67603 22.2151L6.82706 22.2222H15.5962C16.3098 22.2222 16.9151 21.7185 17.053 21.0347L17.0768 20.8853L18.58 5.62963H18.5811ZM13.2928 8.88889C13.5083 8.8889 13.7165 8.96669 13.879 9.10787C14.0414 9.24906 14.147 9.44408 14.1763 9.65689L14.1847 9.77778V18.0741C14.1846 18.2993 14.0987 18.5161 13.9445 18.6806C13.7902 18.8452 13.579 18.9453 13.3536 18.9606C13.1281 18.976 12.9052 18.9055 12.7299 18.7633C12.5546 18.6212 12.44 18.4181 12.4092 18.195L12.4009 18.0741V9.77778C12.4009 9.54203 12.4948 9.31594 12.6621 9.14924C12.8294 8.98254 13.0562 8.88889 13.2928 8.88889ZM9.13055 8.88889C9.34607 8.8889 9.55431 8.96669 9.71674 9.10787C9.87917 9.24906 9.98481 9.44408 10.0141 9.65689L10.0224 9.77778V18.0741C10.0224 18.2993 9.93654 18.5161 9.78226 18.6806C9.62799 18.8452 9.41679 18.9453 9.19134 18.9606C8.96589 18.976 8.74299 18.9055 8.5677 18.7633C8.3924 18.6212 8.27777 18.4181 8.24697 18.195L8.23864 18.0741V9.77778C8.23864 9.54203 8.33261 9.31594 8.49988 9.14924C8.66714 8.98254 8.894 8.88889 9.13055 8.88889ZM11.2117 1.77778C10.6894 1.7778 10.1862 1.97354 9.80198 2.32614C9.41778 2.67874 9.18066 3.16243 9.13768 3.68119L9.13055 3.85185H13.2928C13.2928 3.30177 13.0735 2.77422 12.6832 2.38526C12.2929 1.9963 11.7636 1.77778 11.2117 1.77778Z" fill="#F24E1E"/>
</svg>
