<svg width="251" height="251" viewBox="0 0 251 251" fill="none" xmlns="http://www.w3.org/2000/svg">
<g opacity="0.7">
<path d="M152.344 149.438L210.156 165.453H166.016L105.469 149.438H152.344Z" fill="#0B3571"/>
<path d="M19.5312 86.9375H105.469V235.375H19.5312V86.9375Z" fill="#F9F3D9"/>
<path d="M105.469 86.9375H152.344V149.438H105.469V86.9375Z" fill="#DBB471"/>
<path d="M82.0312 32.25L4.29688 86.9375H105.469L82.0312 32.25Z" fill="#3B97EC"/>
<path d="M113.281 40.0625H125V71.3125H113.281V40.0625Z" fill="#D0D0D0"/>
<path d="M125 40.0625H132.812V75.2188H125V40.0625Z" fill="#94989B"/>
<path d="M82.0312 32.25L167.969 86.9375H105.469L82.0312 32.25Z" fill="#0B3571"/>
<path d="M109.375 32.25H128.906V40.0625H109.375V32.25Z" fill="#D0D0D0"/>
<path d="M128.906 32.25H136.719V40.0625H128.906V32.25Z" fill="#94989B"/>
<path d="M50 109.594H75V134.594H50V109.594Z" fill="#D6EEF0"/>
<path d="M46.875 106.469V137.719H78.125V106.469H46.875ZM75 109.594V120.531H64.0625V109.594H75ZM60.9375 109.594V120.531H50V109.594H60.9375ZM50 134.594V123.656H60.9375V134.594H50ZM64.0625 134.594V123.656H75V134.594H64.0625Z" fill="#8EC2F2"/>
<path d="M119.531 108.031H138.281V136.156H119.531V108.031Z" fill="#D6EEF0"/>
<path d="M117.969 106.469V137.719H139.844V106.469H117.969ZM121.094 109.594H127.344V120.531H121.094V109.594ZM121.094 134.594V123.656H127.344V134.594H121.094ZM136.719 134.594H130.469V123.656H136.719V134.594ZM136.719 120.531H130.469V109.594H136.719V120.531Z" fill="#8EC2F2"/>
<path d="M53.5156 192.797H77.7344V235.375H53.5156V192.797Z" fill="#8EC2F2"/>
<path d="M75 186.547H81.25V192.797H75V186.547Z" fill="#8EC2F2"/>
<path d="M47.2656 192.797H53.5156V235.375H47.2656V192.797Z" fill="#594640"/>
<path d="M44.5312 186.547H75V192.797H44.5312V186.547Z" fill="#DBB471"/>
<path d="M72.6562 213.5C73.9507 213.5 75 212.451 75 211.156C75 209.862 73.9507 208.812 72.6562 208.812C71.3618 208.812 70.3125 209.862 70.3125 211.156C70.3125 212.451 71.3618 213.5 72.6562 213.5Z" fill="#F9F3D9"/>
<path d="M0.390625 235.375H203.516V251H0.390625V235.375Z" fill="#2091F9"/>
<path d="M155.859 165.453H192.188V235.375H155.859V165.453Z" fill="#DBB471"/>
<path d="M105.469 165.453H155.859V235.375H105.469V165.453Z" fill="#F9F3D9"/>
<path d="M105.469 149.438H19.5312L0 165.453H166.016L105.469 149.438Z" fill="#3B97EC"/>
<path d="M110.547 187.719H135.547V212.719H110.547V187.719Z" fill="#D6EEF0"/>
<path d="M107.422 184.594V215.844H138.672V184.594H107.422ZM135.547 187.719V198.656H124.609V187.719H135.547ZM121.484 187.719V198.656H110.547V187.719H121.484ZM110.547 212.719V201.781H121.484V212.719H110.547ZM124.609 212.719V201.781H135.547V212.719H124.609Z" fill="#8EC2F2"/>
<path d="M164.453 186.156H183.203V214.281H164.453V186.156Z" fill="#D6EEF0"/>
<path d="M162.891 184.594V215.844H184.766V184.594H162.891ZM166.016 187.719H172.266V198.656H166.016V187.719ZM166.016 212.719V201.781H172.266V212.719H166.016ZM181.641 212.719H175.391V201.781H181.641V212.719ZM181.641 198.656H175.391V187.719H181.641V198.656Z" fill="#8EC2F2"/>
<path d="M202.734 235.375H249.609V251H202.734V235.375Z" fill="#FFCE31"/>
<path d="M203.906 133.812H219.531V235.375H203.906V133.812Z" fill="#D3976E"/>
<path d="M219.531 133.812H213.672V135.766C213.672 144.75 210.547 144.75 210.547 153.734C210.547 162.719 213.672 162.719 213.672 171.312C213.672 180.297 210.547 180.297 210.547 189.281C210.547 198.266 213.672 198.266 213.672 206.859C213.672 215.844 210.547 215.844 210.547 224.438C210.547 229.906 211.328 232.25 212.109 234.984H219.141C219.531 235.375 219.531 133.812 219.531 133.812Z" fill="#8EC2F2"/>
<path d="M207.813 12.3281C200.391 22.875 191.406 3.73438 179.688 20.1406C167.969 36.5469 174.219 51 177.734 61.5469C184.766 83.0312 170.312 89.6719 180.078 107.641C189.453 125.609 175.781 134.203 193.75 143.969C211.719 153.734 202.734 132.641 221.094 145.141C239.453 157.641 241.797 136.547 239.844 128.734C235.938 114.281 246.484 110.766 249.609 98.6562C254.688 77.1719 237.5 65.4531 242.969 45.1406C247.656 25.2188 230.078 -20.0938 207.813 12.3281Z" fill="#2091F9"/>
<path d="M242.187 45.5312C246.484 30.2969 237.5 1 223.437 1C223.437 1 232.812 13.5 219.531 29.125C206.25 44.75 230.859 52.5625 219.531 67.0156C208.203 81.4688 230.078 95.5312 221.484 106.859C210.937 120.922 194.141 118.969 203.906 145.922V146.312C207.812 143.969 208.203 137.328 220.312 145.531C238.672 158.031 241.016 136.938 239.062 129.125C235.156 114.672 245.703 111.156 248.828 99.0469C254.297 77.5625 237.109 65.8438 242.187 45.5312Z" fill="#FFCE31"/>
<path d="M225.781 44.75C223.047 44.75 227.344 42.4063 227.344 39.2813C227.344 36.1563 223.047 33.8125 225.781 33.8125C228.516 33.8125 231.25 36.1563 231.25 39.2813C231.25 42.4063 228.906 44.75 225.781 44.75Z" fill="#2091F9"/>
<path d="M232.813 92.0156C228.516 92.0156 235.156 88.5 235.156 84.2031C235.156 79.9062 228.516 76.3906 232.813 76.3906C237.109 76.3906 240.625 79.9062 240.625 84.2031C240.625 88.5 237.109 92.0156 232.813 92.0156Z" fill="#2091F9"/>
<path d="M225.781 131.859C222.656 131.859 225.781 129.125 225.781 126C225.781 122.875 222.656 120.141 225.781 120.141C228.906 120.141 231.641 122.875 231.641 126C231.641 129.125 228.906 131.859 225.781 131.859Z" fill="#2091F9"/>
<path d="M192.578 48.2656C195.703 48.2656 191.797 51 191.797 54.125C191.797 57.25 196.094 59.9844 192.578 59.9844C189.063 59.9844 186.719 57.25 186.719 54.125C186.719 51 189.453 48.2656 192.578 48.2656Z" fill="#2091F9"/>
<path d="M205.469 26C209.766 26 203.516 29.5156 203.516 33.8125C203.516 38.1094 210.156 41.625 205.469 41.625C201.172 41.625 197.656 38.1094 197.656 33.8125C197.656 29.5156 200.781 26 205.469 26Z" fill="#2091F9"/>
<path d="M201.953 85.375C208.594 85.375 199.219 90.4531 199.219 97.0938C199.219 103.734 208.203 108.812 201.953 108.812C195.313 108.812 190.234 103.734 190.234 97.0938C190.234 90.4531 195.313 85.375 201.953 85.375Z" fill="#FFCE31"/>
<path d="M205.469 63.8906C208.594 63.8906 205.469 66.625 205.469 69.75C205.469 72.875 208.594 75.6094 205.469 75.6094C202.344 75.6094 199.609 72.875 199.609 69.75C199.609 66.625 202.344 63.8906 205.469 63.8906Z" fill="#FFCE31"/>
<path d="M226.953 223.656H228.516V235.375H226.953V223.656Z" fill="#2091F9"/>
<path d="M223.438 211.547V220.531C223.438 222.094 224.609 223.656 226.562 223.656H229.688V217.406C229.297 213.109 223.438 211.547 223.438 211.547Z" fill="#0B3571"/>
<path d="M232.422 211.547V220.531C232.422 222.094 231.25 223.656 229.297 223.656H226.172V217.406C226.172 213.109 232.422 211.547 232.422 211.547Z" fill="#3B97EC"/>
<path d="M244.141 214.672H245.703V235.375H244.141V214.672Z" fill="#2091F9"/>
<path d="M240.625 202.172V211.156C240.625 212.719 241.797 214.281 243.75 214.281H246.875V208.031C246.484 204.125 240.625 202.172 240.625 202.172Z" fill="#0B3571"/>
<path d="M249.609 202.172V211.156C249.609 212.719 248.438 214.281 246.484 214.281H243.359V208.031C243.359 204.125 249.609 202.172 249.609 202.172Z" fill="#3B97EC"/>
<path d="M229.297 197.094V206.078C229.297 207.641 230.469 209.203 232.422 209.203H235.547V202.953C235.547 199.047 229.297 197.094 229.297 197.094Z" fill="#F2B200"/>
<path d="M238.672 197.094V206.078C238.672 207.641 237.5 209.203 235.547 209.203H232.422V202.953C232.422 199.047 238.672 197.094 238.672 197.094Z" fill="#FFCE31"/>
<path d="M233.203 209.594H234.766V235.375H233.203V209.594Z" fill="#2091F9"/>
<path d="M216.797 201.781V210.766C216.797 212.328 218.359 213.891 219.922 213.891H222.656V208.031C222.656 203.344 216.797 201.781 216.797 201.781Z" fill="#F2B200"/>
<path d="M225.781 201.781V210.766C225.781 212.328 224.609 213.891 222.656 213.891H219.531V208.031C219.531 203.344 225.781 201.781 225.781 201.781Z" fill="#FFCE31"/>
<path d="M220.312 213.891H221.875V235.375H220.312V213.891Z" fill="#2091F9"/>
<path d="M191.406 223.656H192.969V235.375H191.406V223.656Z" fill="#2091F9"/>
<path d="M187.5 211.547V220.531C187.5 222.094 188.672 223.656 190.625 223.656H193.75V217.406C193.75 213.109 187.5 211.547 187.5 211.547Z" fill="#0B3571"/>
<path d="M196.875 211.547V220.531C196.875 222.094 195.703 223.656 193.75 223.656H190.625V217.406C190.625 213.109 196.875 211.547 196.875 211.547Z" fill="#3B97EC"/>
<path d="M208.594 214.672H210.156V235.375H208.594V214.672Z" fill="#2091F9"/>
<path d="M204.688 202.172V211.156C204.688 212.719 205.859 214.281 207.812 214.281H210.938V208.031C210.938 204.125 204.688 202.172 204.688 202.172Z" fill="#0B3571"/>
<path d="M214.062 202.172V211.156C214.062 212.719 212.891 214.281 210.938 214.281H207.812V208.031C207.812 204.125 214.062 202.172 214.062 202.172Z" fill="#3B97EC"/>
<path d="M193.75 197.094V206.078C193.75 207.641 194.922 209.203 196.875 209.203H200V202.953C200 199.047 193.75 197.094 193.75 197.094Z" fill="#F2B200"/>
<path d="M202.734 197.094V206.078C202.734 207.641 201.563 209.203 199.609 209.203H196.484V202.953C196.875 199.047 202.734 197.094 202.734 197.094Z" fill="#FFCE31"/>
<path d="M197.656 209.594H199.219V235.375H197.656V209.594Z" fill="#2091F9"/>
<path d="M180.859 201.781V210.766C180.859 212.328 182.031 213.891 183.984 213.891H187.109V208.031C187.109 203.344 180.859 201.781 180.859 201.781Z" fill="#0B3571"/>
<path d="M190.234 201.781V210.766C190.234 212.328 189.063 213.891 187.109 213.891H183.984V208.031C183.984 203.344 190.234 201.781 190.234 201.781Z" fill="#3B97EC"/>
<path d="M184.766 213.891H186.328V235.375H184.766V213.891Z" fill="#2091F9"/>
</g>
</svg>
