<svg width="25" height="24" viewBox="0 0 25 24" fill="none" xmlns="http://www.w3.org/2000/svg">
<g clip-path="url(#clip0_122_131)">
<path d="M21.6307 2.25264C18.6272 -0.750879 13.7575 -0.750879 10.7539 2.25264C8.37001 4.63656 7.87857 8.19601 9.27896 11.065L7.1372 13.2068C7.12128 13.2227 7.10872 13.2416 7.10025 13.2625C7.09178 13.2833 7.08758 13.3057 7.08788 13.3282L7.10677 14.6666C7.10709 14.6891 7.10289 14.7114 7.09442 14.7323C7.08595 14.7531 7.07338 14.7721 7.05746 14.788L5.93813 15.9073C5.91851 15.9269 5.89433 15.9414 5.86776 15.9494C5.84119 15.9575 5.81305 15.9588 5.78584 15.9533L4.71296 15.7372C4.68575 15.7317 4.65761 15.7331 4.63104 15.7411C4.60447 15.7491 4.5803 15.7636 4.56067 15.7832L3.3729 16.9711C3.34342 17.0005 3.32593 17.0399 3.32382 17.0815L3.25548 18.4254C3.25433 18.4479 3.24867 18.4699 3.23883 18.4902C3.229 18.5105 3.21519 18.5286 3.19822 18.5435C3.18125 18.5583 3.16147 18.5696 3.14006 18.5767C3.11864 18.5837 3.09603 18.5864 3.07356 18.5846L1.93702 18.491C1.91267 18.489 1.88817 18.4923 1.86523 18.5008C1.84229 18.5092 1.82146 18.5225 1.80418 18.5398L0.770587 19.5734C0.754947 19.589 0.74254 19.6076 0.734075 19.628C0.725609 19.6484 0.721252 19.6703 0.721252 19.6924C0.721252 19.7145 0.725609 19.7364 0.734075 19.7568C0.74254 19.7773 0.754947 19.7958 0.770587 19.8114L1.28331 20.3241C1.29895 20.3397 1.31135 20.3583 1.31982 20.3787C1.32828 20.3992 1.33264 20.421 1.33264 20.4432C1.33264 20.4653 1.32828 20.4872 1.31982 20.5076C1.31135 20.528 1.29895 20.5466 1.28331 20.5622L0.892415 20.9531C0.861816 20.9837 0.844175 21.0249 0.84315 21.0682L0.789431 23.3721C0.788901 23.3949 0.792994 23.4175 0.801462 23.4386C0.80993 23.4598 0.822597 23.479 0.838697 23.4951L1.20399 23.8604C1.23774 23.8941 1.2842 23.9119 1.33182 23.9094L3.56874 23.7927C3.6103 23.7906 3.64959 23.7731 3.67899 23.7437L12.8184 14.6043C15.6873 16.0047 19.2468 15.5132 21.6307 13.1293C24.6343 10.1259 24.6343 5.25615 21.6307 2.25264V2.25264ZM20.5145 5.83567C19.8333 6.51685 18.7289 6.51685 18.0477 5.83567C17.3665 5.15448 17.3665 4.05001 18.0477 3.36882C18.7289 2.68764 19.8333 2.68764 20.5145 3.36882C21.1957 4.05001 21.1957 5.15448 20.5145 5.83567Z" fill="#FFB636"/>
</g>
<defs>
<clipPath id="clip0_122_131">
<rect width="24" height="24" fill="white" transform="translate(0.211517)"/>
</clipPath>
</defs>
</svg>
