<svg width="24" height="24" viewBox="0 0 24 24" fill="none" xmlns="http://www.w3.org/2000/svg">
<path d="M20.9095 2.25264C17.9059 -0.750879 13.0362 -0.750879 10.0327 2.25264C7.64876 4.63656 7.15732 8.19601 8.55771 11.065L6.41594 13.2068C6.40003 13.2227 6.38747 13.2416 6.379 13.2625C6.37053 13.2833 6.36632 13.3057 6.36663 13.3282L6.38552 14.6666C6.38584 14.6891 6.38164 14.7114 6.37317 14.7323C6.3647 14.7531 6.35213 14.7721 6.33621 14.788L5.21688 15.9073C5.19726 15.9269 5.17308 15.9414 5.14651 15.9494C5.11994 15.9575 5.09179 15.9588 5.06458 15.9533L3.99171 15.7372C3.9645 15.7317 3.93636 15.7331 3.90979 15.7411C3.88322 15.7491 3.85905 15.7636 3.83941 15.7832L2.65165 16.9711C2.62217 17.0005 2.60468 17.0399 2.60257 17.0815L2.53423 18.4254C2.53308 18.4479 2.52742 18.4699 2.51758 18.4902C2.50774 18.5105 2.49393 18.5286 2.47697 18.5435C2.46 18.5583 2.44022 18.5696 2.41881 18.5767C2.39739 18.5837 2.37478 18.5864 2.3523 18.5846L1.21577 18.491C1.19142 18.489 1.16692 18.4923 1.14398 18.5008C1.12104 18.5092 1.1002 18.5225 1.08293 18.5398L0.0493347 19.5734C0.0336945 19.589 0.0212873 19.6076 0.0128222 19.628C0.00435706 19.6484 0 19.6703 0 19.6924C0 19.7145 0.00435706 19.7364 0.0128222 19.7568C0.0212873 19.7773 0.0336945 19.7958 0.0493347 19.8114L0.562053 20.3241C0.577694 20.3397 0.590101 20.3583 0.598566 20.3787C0.607031 20.3992 0.611388 20.421 0.611388 20.4432C0.611388 20.4653 0.607031 20.4872 0.598566 20.5076C0.590101 20.528 0.577694 20.5466 0.562053 20.5622L0.171163 20.9531C0.140563 20.9837 0.122922 21.0249 0.121897 21.0682L0.0681785 23.3721C0.0676486 23.3949 0.0717413 23.4175 0.0802092 23.4386C0.0886772 23.4598 0.101344 23.479 0.117444 23.4951L0.482741 23.8604C0.516491 23.8941 0.562944 23.9119 0.610569 23.9094L2.84749 23.7927C2.88905 23.7906 2.92833 23.7731 2.95774 23.7437L12.0971 14.6043C14.9661 16.0047 18.5255 15.5132 20.9095 13.1293C23.913 10.1259 23.913 5.25615 20.9095 2.25264ZM19.7933 5.83567C19.1121 6.51686 18.0076 6.51686 17.3264 5.83567C16.6452 5.15448 16.6452 4.05001 17.3264 3.36882C18.0076 2.68764 19.1121 2.68764 19.7933 3.36882C20.4745 4.05001 20.4745 5.15448 19.7933 5.83567Z" fill="#FFB636"/>
</svg>
