<svg width="35" height="34" viewBox="0 0 35 34" fill="none" xmlns="http://www.w3.org/2000/svg">
<path d="M31.3338 25.6977H28.5313C28.34 25.6977 28.1606 25.7807 28.041 25.927C27.762 26.263 27.463 26.5872 27.1481 26.8956C25.86 28.1743 24.3344 29.1933 22.6554 29.8963C20.916 30.6249 19.0464 30.9987 17.1582 30.9954C15.2488 30.9954 13.3991 30.6237 11.661 29.8963C9.98207 29.1933 8.4564 28.1743 7.16838 26.8956C5.87805 25.6212 4.84918 24.1108 4.13874 22.4479C3.40126 20.7242 3.03053 18.8937 3.03053 17C3.03053 15.1063 3.40525 13.2759 4.13874 11.5521C4.84831 9.88772 5.86882 8.38935 7.16838 7.10447C8.46794 5.81958 9.97877 4.80749 11.661 4.10377C13.3991 3.37633 15.2488 3.00471 17.1582 3.00471C19.0677 3.00471 20.9174 3.37238 22.6554 4.10377C24.3377 4.80749 25.8485 5.81958 27.1481 7.10447C27.463 7.41679 27.758 7.74098 28.041 8.07307C28.1606 8.21935 28.344 8.30237 28.5313 8.30237H31.3338C31.5849 8.30237 31.7404 8.02563 31.6008 7.81609C28.5433 3.10354 23.1936 -0.0157541 17.1144 5.98504e-05C7.56303 0.0237807 -0.0947861 7.7133 0.000886786 17.174C0.0965597 26.4844 7.74242 34 17.1582 34C23.2215 34 28.5473 30.8847 31.6008 26.184C31.7364 25.9744 31.5849 25.6977 31.3338 25.6977ZM34.8776 16.751L29.221 12.3231C29.0097 12.157 28.7028 12.3072 28.7028 12.5721V15.5768H16.1856C16.0101 15.5768 15.8666 15.7191 15.8666 15.8931V18.107C15.8666 18.281 16.0101 18.4233 16.1856 18.4233H28.7028V21.4279C28.7028 21.6928 29.0137 21.843 29.221 21.677L34.8776 17.2491C34.9158 17.2195 34.9466 17.1817 34.9678 17.1386C34.989 17.0954 35 17.048 35 17C35 16.952 34.989 16.9047 34.9678 16.8615C34.9466 16.8183 34.9158 16.7805 34.8776 16.751Z" fill="#FF0000" fill-opacity="0.72"/>
</svg>
