<svg width="27" height="27" viewBox="0 0 27 27" fill="none" xmlns="http://www.w3.org/2000/svg">
<g filter="url(#filter0_d_331_581)">
<circle cx="13.5" cy="11.5" r="9.5" fill="white"/>
</g>
<path d="M12.5635 13.8652C12.5635 13.2158 12.644 12.6982 12.8052 12.3125C12.9663 11.9268 13.2837 11.5044 13.7573 11.0454C14.2358 10.5815 14.5386 10.252 14.6655 10.0566C14.8608 9.75879 14.9585 9.43652 14.9585 9.08984C14.9585 8.63086 14.8438 8.28174 14.6143 8.04248C14.3896 7.79834 14.0576 7.67627 13.6182 7.67627C13.1982 7.67627 12.8589 7.7959 12.6001 8.03516C12.3462 8.26953 12.2192 8.58936 12.2192 8.99463H10.4395C10.4492 8.13037 10.7422 7.44678 11.3184 6.94385C11.8994 6.44092 12.666 6.18945 13.6182 6.18945C14.5996 6.18945 15.3638 6.43848 15.9106 6.93652C16.4624 7.43457 16.7383 8.13037 16.7383 9.02393C16.7383 9.81982 16.3672 10.6035 15.625 11.375L14.7241 12.2612C14.4019 12.6274 14.2358 13.1621 14.2261 13.8652H12.5635ZM12.439 16.1431C12.439 15.855 12.5293 15.623 12.71 15.4473C12.8906 15.2666 13.1348 15.1763 13.4424 15.1763C13.7549 15.1763 14.0015 15.269 14.1821 15.4546C14.3628 15.6353 14.4531 15.8647 14.4531 16.1431C14.4531 16.4116 14.3652 16.6362 14.1895 16.8169C14.0137 16.9976 13.7646 17.0879 13.4424 17.0879C13.1201 17.0879 12.8711 16.9976 12.6953 16.8169C12.5244 16.6362 12.439 16.4116 12.439 16.1431Z" fill="#3B97EC"/>
<defs>
<filter id="filter0_d_331_581" x="0" y="0" width="27" height="27" filterUnits="userSpaceOnUse" color-interpolation-filters="sRGB">
<feFlood flood-opacity="0" result="BackgroundImageFix"/>
<feColorMatrix in="SourceAlpha" type="matrix" values="0 0 0 0 0 0 0 0 0 0 0 0 0 0 0 0 0 0 127 0" result="hardAlpha"/>
<feOffset dy="2"/>
<feGaussianBlur stdDeviation="2"/>
<feComposite in2="hardAlpha" operator="out"/>
<feColorMatrix type="matrix" values="0 0 0 0 0 0 0 0 0 0 0 0 0 0 0 0 0 0 0.25 0"/>
<feBlend mode="normal" in2="BackgroundImageFix" result="effect1_dropShadow_331_581"/>
<feBlend mode="normal" in="SourceGraphic" in2="effect1_dropShadow_331_581" result="shape"/>
</filter>
</defs>
</svg>
