<svg width="18" height="24" viewBox="0 0 18 24" fill="none" xmlns="http://www.w3.org/2000/svg">
<path d="M5.28454 18.6369C5.49454 18.5139 5.72404 18.3939 5.97304 18.2799C5.7627 18.5935 5.53744 18.8968 5.29804 19.1889C4.87804 19.6944 4.55104 19.9629 4.34554 20.0469C4.32848 20.0541 4.31094 20.0601 4.29304 20.0649C4.27807 20.0441 4.26502 20.022 4.25404 19.9989C4.17004 19.8339 4.17304 19.6749 4.31404 19.4589C4.47304 19.2114 4.79254 18.9279 5.28454 18.6369ZM8.96704 16.1664C8.78854 16.2039 8.61154 16.2414 8.43304 16.2834C8.69744 15.7654 8.94753 15.2402 9.18304 14.7084C9.42015 15.1478 9.67537 15.5771 9.94804 15.9954C9.62254 16.0434 9.29404 16.1004 8.96704 16.1664ZM12.7545 17.5749C12.5216 17.387 12.3034 17.1814 12.102 16.9599C12.444 16.9674 12.753 16.9929 13.02 17.0409C13.4955 17.1264 13.719 17.2614 13.797 17.3544C13.8216 17.3804 13.8356 17.4146 13.836 17.4504C13.8308 17.5562 13.7999 17.6592 13.746 17.7504C13.7158 17.8235 13.6672 17.8875 13.605 17.9364C13.5741 17.9554 13.5376 17.9633 13.5015 17.9589C13.3665 17.9544 13.1145 17.8599 12.7545 17.5749ZM9.41704 10.4559C9.35704 10.8219 9.25504 11.2419 9.11704 11.6994C9.0662 11.5281 9.02167 11.355 8.98354 11.1804C8.86954 10.6509 8.85304 10.2354 8.91454 9.94739C8.97154 9.68189 9.07954 9.57539 9.20854 9.52289C9.27773 9.49239 9.35101 9.47218 9.42604 9.46289C9.44555 9.50789 9.46804 9.60089 9.47404 9.75989C9.48154 9.94289 9.46354 10.1754 9.41704 10.4574V10.4559Z" fill="#F24E1E"/>
<path fill-rule="evenodd" clip-rule="evenodd" d="M3 0H10.9395C11.3373 8.49561e-05 11.7188 0.158176 12 0.4395L17.5605 6C17.8418 6.28124 17.9999 6.66271 18 7.0605V21C18 21.7956 17.6839 22.5587 17.1213 23.1213C16.5587 23.6839 15.7956 24 15 24H3C2.20435 24 1.44129 23.6839 0.87868 23.1213C0.31607 22.5587 0 21.7956 0 21V3C0 2.20435 0.31607 1.44129 0.87868 0.87868C1.44129 0.316071 2.20435 0 3 0V0ZM11.25 2.25V5.25C11.25 5.64782 11.408 6.02936 11.6893 6.31066C11.9706 6.59196 12.3522 6.75 12.75 6.75H15.75L11.25 2.25ZM3.2475 20.502C3.3825 20.772 3.5925 21.0165 3.9045 21.1305C4.215 21.243 4.5225 21.1905 4.7745 21.0855C5.2515 20.8905 5.727 20.4315 6.1635 19.9065C6.663 19.305 7.188 18.516 7.695 17.6415C8.6738 17.3514 9.67613 17.1476 10.6905 17.0325C11.1405 17.607 11.6055 18.102 12.0555 18.4575C12.4755 18.7875 12.96 19.062 13.4565 19.083C13.7269 19.0964 13.9947 19.0239 14.2215 18.876C14.454 18.7245 14.6265 18.5055 14.7525 18.252C14.8875 17.9805 14.97 17.697 14.9595 17.4075C14.95 17.1221 14.8443 16.8482 14.6595 16.6305C14.3205 16.2255 13.7655 16.0305 13.2195 15.933C12.5572 15.8304 11.8851 15.8052 11.217 15.858C10.6528 15.0604 10.1608 14.214 9.747 13.329C10.122 12.339 10.4025 11.403 10.527 10.638C10.581 10.311 10.6095 9.999 10.599 9.717C10.5971 9.43708 10.532 9.1612 10.4085 8.91C10.3373 8.77137 10.2362 8.65031 10.1125 8.55561C9.9887 8.46091 9.84542 8.39495 9.693 8.3625C9.39 8.298 9.078 8.3625 8.7915 8.478C8.226 8.703 7.9275 9.183 7.815 9.7125C7.7055 10.2225 7.755 10.8165 7.884 11.4165C8.016 12.0255 8.241 12.6885 8.529 13.359C8.06833 14.5047 7.53629 15.6204 6.936 16.6995C6.16296 16.9427 5.41782 17.267 4.713 17.667C4.158 17.997 3.6645 18.387 3.3675 18.8475C3.0525 19.3365 2.955 19.9185 3.2475 20.502Z" fill="#F24E1E"/>
</svg>
