<svg width="19" height="24" viewBox="0 0 19 24" fill="none" xmlns="http://www.w3.org/2000/svg">
<path d="M5.49597 18.6369C5.70597 18.5139 5.93547 18.3939 6.18447 18.2799C5.97412 18.5935 5.74887 18.8968 5.50947 19.1889C5.08947 19.6944 4.76247 19.9629 4.55697 20.0469C4.53991 20.0541 4.52237 20.0601 4.50447 20.0649C4.4895 20.0441 4.47645 20.022 4.46547 19.9989C4.38147 19.8339 4.38447 19.6749 4.52547 19.4589C4.68447 19.2114 5.00397 18.9279 5.49597 18.6369ZM9.17847 16.1664C8.99997 16.2039 8.82297 16.2414 8.64447 16.2834C8.90886 15.7654 9.15896 15.2402 9.39447 14.7084C9.63158 15.1478 9.8868 15.5771 10.1595 15.9954C9.83397 16.0434 9.50547 16.1004 9.17847 16.1664ZM12.966 17.5749C12.733 17.387 12.5148 17.1814 12.3135 16.9599C12.6555 16.9674 12.9645 16.9929 13.2315 17.0409C13.707 17.1264 13.9305 17.2614 14.0085 17.3544C14.0331 17.3804 14.047 17.4146 14.0475 17.4504C14.0422 17.5562 14.0113 17.6592 13.9575 17.7504C13.9272 17.8235 13.8787 17.8875 13.8165 17.9364C13.7855 17.9554 13.749 17.9633 13.713 17.9589C13.578 17.9544 13.326 17.8599 12.966 17.5749ZM9.62847 10.4559C9.56847 10.8219 9.46647 11.2419 9.32847 11.6994C9.27762 11.5281 9.23309 11.355 9.19497 11.1804C9.08097 10.6509 9.06447 10.2354 9.12597 9.94739C9.18297 9.68189 9.29097 9.57539 9.41997 9.52289C9.48916 9.49239 9.56243 9.47218 9.63747 9.46289C9.65697 9.50789 9.67947 9.60089 9.68547 9.75989C9.69297 9.94289 9.67497 10.1754 9.62847 10.4574V10.4559Z" fill="#F24E1E"/>
<path fill-rule="evenodd" clip-rule="evenodd" d="M3.21143 0H11.1509C11.5487 8.49561e-05 11.9302 0.158176 12.2114 0.4395L17.7719 6C18.0532 6.28124 18.2113 6.66271 18.2114 7.0605V21C18.2114 21.7956 17.8954 22.5587 17.3327 23.1213C16.7701 23.6839 16.0071 24 15.2114 24H3.21143C2.41578 24 1.65271 23.6839 1.09011 23.1213C0.527496 22.5587 0.211426 21.7956 0.211426 21V3C0.211426 2.20435 0.527496 1.44129 1.09011 0.87868C1.65271 0.316071 2.41578 0 3.21143 0V0ZM11.4614 2.25V5.25C11.4614 5.64782 11.6195 6.02936 11.9008 6.31066C12.1821 6.59196 12.5636 6.75 12.9614 6.75H15.9614L11.4614 2.25ZM3.45893 20.502C3.59393 20.772 3.80393 21.0165 4.11593 21.1305C4.42643 21.243 4.73393 21.1905 4.98593 21.0855C5.46293 20.8905 5.93843 20.4315 6.37493 19.9065C6.87443 19.305 7.39943 18.516 7.90643 17.6415C8.88522 17.3514 9.88756 17.1476 10.9019 17.0325C11.3519 17.607 11.8169 18.102 12.2669 18.4575C12.6869 18.7875 13.1714 19.062 13.6679 19.083C13.9384 19.0964 14.2061 19.0239 14.4329 18.876C14.6654 18.7245 14.8379 18.5055 14.9639 18.252C15.0989 17.9805 15.1814 17.697 15.1709 17.4075C15.1614 17.1221 15.0557 16.8482 14.8709 16.6305C14.5319 16.2255 13.9769 16.0305 13.4309 15.933C12.7686 15.8304 12.0966 15.8052 11.4284 15.858C10.8642 15.0604 10.3723 14.214 9.95843 13.329C10.3334 12.339 10.6139 11.403 10.7384 10.638C10.7924 10.311 10.8209 9.999 10.8104 9.717C10.8086 9.43708 10.7434 9.1612 10.6199 8.91C10.5488 8.77137 10.4476 8.65031 10.3239 8.55561C10.2001 8.46091 10.0568 8.39495 9.90443 8.3625C9.60143 8.298 9.28943 8.3625 9.00293 8.478C8.43743 8.703 8.13893 9.183 8.02643 9.7125C7.91693 10.2225 7.96643 10.8165 8.09543 11.4165C8.22743 12.0255 8.45243 12.6885 8.74043 13.359C8.27975 14.5047 7.74771 15.6204 7.14743 16.6995C6.37439 16.9427 5.62924 17.267 4.92443 17.667C4.36943 17.997 3.87593 18.387 3.57893 18.8475C3.26393 19.3365 3.16643 19.9185 3.45893 20.502Z" fill="#F24E1E"/>
</svg>
