<svg width="24" height="24" viewBox="0 0 24 24" fill="none" xmlns="http://www.w3.org/2000/svg">
<path d="M17.1426 20.5711C18.0894 20.5711 18.8569 19.8036 18.8569 18.8569C18.8569 17.9101 18.0894 17.1426 17.1426 17.1426C16.1959 17.1426 15.4283 17.9101 15.4283 18.8569C15.4283 19.8036 16.1959 20.5711 17.1426 20.5711Z" fill="#2091F9"/>
<path d="M23.8087 18.4111C23.2791 17.0619 22.3651 15.8977 21.1802 15.0629C19.9953 14.2281 18.5914 13.7594 17.1427 13.7148C15.6939 13.7594 14.29 14.2281 13.1051 15.0629C11.9202 15.8977 11.0063 17.0619 10.4767 18.4111L10.2855 18.8577L10.4767 19.3043C11.0063 20.6535 11.9202 21.8177 13.1051 22.6525C14.29 23.4873 15.6939 23.956 17.1427 24.0006C18.5914 23.956 19.9953 23.4873 21.1802 22.6525C22.3651 21.8177 23.2791 20.6535 23.8087 19.3043L23.9998 18.8577L23.8087 18.4111ZM17.1427 22.2863C16.4646 22.2863 15.8017 22.0852 15.2379 21.7085C14.674 21.3317 14.2346 20.7962 13.9751 20.1698C13.7156 19.5433 13.6477 18.8539 13.78 18.1888C13.9123 17.5237 14.2388 16.9128 14.7183 16.4333C15.1978 15.9538 15.8087 15.6273 16.4738 15.495C17.1389 15.3627 17.8282 15.4306 18.4547 15.6901C19.0812 15.9496 19.6167 16.3891 19.9934 16.9529C20.3702 17.5167 20.5712 18.1796 20.5712 18.8577C20.5701 19.7667 20.2085 20.6381 19.5658 21.2808C18.923 21.9235 18.0516 22.2851 17.1427 22.2863Z" fill="#2091F9"/>
<path d="M4.28564 12.8574H8.57136V14.5717H4.28564V12.8574Z" fill="#2091F9"/>
<path d="M4.28564 8.57227H14.5714V10.2866H4.28564V8.57227Z" fill="#2091F9"/>
<path d="M4.28571 4.28516H14.5714V5.99944H4.28571V4.28516Z" fill="#2091F9"/>
<path d="M17.1429 0H1.71429C1.26005 0.00135662 0.824798 0.182404 0.503601 0.503601C0.182404 0.824798 0.00135662 1.26005 0 1.71429V22.2857C0.00135662 22.7399 0.182404 23.1752 0.503601 23.4964C0.824798 23.8176 1.26005 23.9986 1.71429 24H8.57143V22.2857H1.71429V1.71429H17.1429V11.1429H18.8571V1.71429C18.8558 1.26005 18.6747 0.824798 18.3535 0.503601C18.0323 0.182404 17.5971 0.00135662 17.1429 0Z" fill="#2091F9"/>
</svg>
