<svg width="45" height="45" viewBox="0 0 45 45" fill="none" xmlns="http://www.w3.org/2000/svg">
<path d="M12.6562 5.625C10.7914 5.625 9.00302 6.36579 7.68441 7.68441C6.36579 9.00302 5.625 10.7914 5.625 12.6562V32.3438C5.625 33.7781 6.0525 35.1084 6.78938 36.2222L19.1194 23.8922C20.016 22.9957 21.232 22.492 22.5 22.492C23.768 22.492 24.984 22.9957 25.8806 23.8922L38.2106 36.2222C38.9475 35.1084 39.375 33.7753 39.375 32.3438V12.6562C39.375 10.7914 38.6342 9.00302 37.3156 7.68441C35.997 6.36579 34.2086 5.625 32.3438 5.625H12.6562ZM32.3438 15.4744C32.3438 16.2218 32.0468 16.9386 31.5183 17.4671C30.9898 17.9956 30.273 18.2925 29.5256 18.2925C28.7782 18.2925 28.0614 17.9956 27.5329 17.4671C27.0044 16.9386 26.7075 16.2218 26.7075 15.4744C26.7075 14.727 27.0044 14.0102 27.5329 13.4817C28.0614 12.9532 28.7782 12.6562 29.5256 12.6562C30.273 12.6562 30.9898 12.9532 31.5183 13.4817C32.0468 14.0102 32.3438 14.727 32.3438 15.4744ZM36.2222 38.2106L23.8922 25.8806C23.7094 25.6978 23.4923 25.5528 23.2535 25.4538C23.0146 25.3549 22.7586 25.3039 22.5 25.3039C22.2414 25.3039 21.9854 25.3549 21.7465 25.4538C21.5077 25.5528 21.2906 25.6978 21.1078 25.8806L8.77781 38.2106C9.89156 38.9475 11.2247 39.375 12.6562 39.375H32.3438C33.7781 39.375 35.1084 38.9475 36.2222 38.2106Z" fill="#699BF7"/>
</svg>
