<svg width="34" height="35" viewBox="0 0 34 35" fill="none" xmlns="http://www.w3.org/2000/svg">
<path d="M18.5875 15.6875C17.8625 15.5062 17.1375 15.1437 16.5938 14.6C16.05 14.4187 15.8688 13.875 15.8688 13.5125C15.8688 13.15 16.05 12.6062 16.4125 12.425C16.9562 12.0625 17.5 11.7 18.0437 11.8812C19.1313 11.8812 20.0375 12.425 20.5812 13.15L22.2125 10.975C21.6687 10.4312 21.125 10.0687 20.5812 9.70625C20.0375 9.34375 19.3125 9.1625 18.5875 9.1625V6.625H16.4125V9.1625C15.5062 9.34375 14.6 9.8875 13.875 10.6125C13.15 11.5187 12.6062 12.6062 12.7875 13.6937C12.7875 14.7812 13.15 15.8687 13.875 16.5938C14.7812 17.5 16.05 18.0437 17.1375 18.5875C17.6812 18.7687 18.4062 19.1313 18.95 19.4937C19.3125 19.8562 19.4937 20.4 19.4937 20.9438C19.4937 21.4875 19.3125 22.0312 18.95 22.575C18.4062 23.1187 17.6812 23.3 17.1375 23.3C16.4125 23.3 15.5063 23.1187 14.9625 22.575C14.4188 22.2125 13.875 21.6687 13.5125 21.125L11.7 23.1187C12.2437 23.8438 12.7875 24.3875 13.5125 24.9312C14.4187 25.475 15.5062 26.0187 16.5938 26.0187V28.375H18.5875V25.6562C19.675 25.475 20.5812 24.9312 21.3062 24.2062C22.2125 23.3 22.7563 21.85 22.7563 20.5812C22.7563 19.4937 22.3937 18.225 21.4875 17.5C20.5812 16.5938 19.675 16.05 18.5875 15.6875ZM17.5 3C9.525 3 3 9.525 3 17.5C3 25.475 9.525 32 17.5 32C25.475 32 32 25.475 32 17.5C32 9.525 25.475 3 17.5 3ZM17.5 30.0062C10.6125 30.0062 4.99375 24.3875 4.99375 17.5C4.99375 10.6125 10.6125 4.99375 17.5 4.99375C24.3875 4.99375 30.0062 10.6125 30.0062 17.5C30.0062 24.3875 24.3875 30.0062 17.5 30.0062Z" fill="#959595"/>
</svg>
