<svg width="35" height="35" viewBox="0 0 35 35" fill="none" xmlns="http://www.w3.org/2000/svg">
<path d="M17.5 2.91675C25.5543 2.91675 32.0833 9.44571 32.0833 17.5001C32.0833 25.5545 25.5543 32.0834 17.5 32.0834C9.44558 32.0834 2.91663 25.5545 2.91663 17.5001C2.91663 9.44571 9.44558 2.91675 17.5 2.91675ZM17.5 7.29175C11.862 7.29175 7.29163 11.8622 7.29163 17.5001C7.29163 20.2009 8.34163 22.6582 10.0537 24.484L10.2812 24.7174L12.3433 22.6567C11.025 21.3355 10.2083 19.5126 10.2083 17.5001C10.2083 13.4736 13.4735 10.2084 17.5 10.2084C18.1533 10.2084 18.7862 10.2945 19.3885 10.4563L21.6679 8.17841C20.3947 7.60966 18.9845 7.29175 17.5 7.29175ZM26.8216 13.3336L24.5452 15.6115C24.7056 16.2138 24.7916 16.8467 24.7916 17.5001C24.7916 19.5126 23.975 21.3355 22.6566 22.6567L24.7187 24.7188C26.565 22.8711 27.7083 20.319 27.7083 17.5001C27.7083 16.0155 27.3918 14.6053 26.8216 13.3336ZM23.6862 9.25029L18.2539 14.6811C18.0133 14.617 17.761 14.5834 17.5 14.5834C15.8885 14.5834 14.5833 15.8886 14.5833 17.5001C14.5833 19.1115 15.8885 20.4167 17.5 20.4167C19.1114 20.4167 20.4166 19.1115 20.4166 17.5001C20.4166 17.239 20.3831 16.9867 20.3189 16.7461L25.7497 11.3124L23.6877 9.25029H23.6862Z" fill="#959595"/>
</svg>
