<svg width="34" height="35" viewBox="0 0 34 35" fill="none" xmlns="http://www.w3.org/2000/svg">
<path d="M14.887 30.9258C14.585 30.5875 14.2418 30.2032 13.9808 30.1525C13.5591 30.1704 13.15 30.3019 12.7968 30.5331L12.8052 30.527C12.3787 30.7779 11.9031 30.9337 11.4109 30.9838L11.3964 30.985H11.3843C11.2322 30.9852 11.0815 30.9552 10.9409 30.8968L10.9482 30.8992C10.3549 30.6527 10.1145 29.9664 9.88493 29.3018C9.79287 28.9016 9.60317 28.5305 9.33276 28.2215L9.33518 28.224C9.12623 28.1225 8.89346 28.0803 8.66219 28.1019H8.66703C8.49063 28.1019 8.30456 28.1128 8.11849 28.1237C7.91792 28.1357 7.71736 28.1454 7.52646 28.1454C7.29721 28.167 7.06595 28.1432 6.84596 28.0751C6.62596 28.0071 6.42157 27.8963 6.24452 27.7491L6.24694 27.7515C6.05684 27.4804 5.92581 27.1725 5.86232 26.8475C5.79884 26.5226 5.80433 26.188 5.87843 25.8653L5.87601 25.881C5.94681 25.4678 5.91189 25.0434 5.77452 24.6473L5.77935 24.6654C5.47599 24.3987 5.11167 24.2107 4.71852 24.118L4.70161 24.1144C4.03708 23.8836 3.34839 23.6444 3.10432 23.0511C3.03431 22.7311 3.03178 22.4 3.0969 22.079C3.16201 21.758 3.29334 21.454 3.4825 21.1866L3.47767 21.1939C3.69841 20.8395 3.826 20.4351 3.8486 20.0182V20.0121C3.79785 19.7499 3.41363 19.408 3.07533 19.1059C2.54612 18.637 2 18.1501 2 17.4988C2 16.8475 2.54612 16.3605 3.07412 15.8881C3.41242 15.586 3.79664 15.2428 3.84739 14.9818C3.82287 14.5609 3.69191 14.153 3.46679 13.7965L3.47284 13.8061C3.2842 13.5367 3.15398 13.2308 3.09052 12.908C3.02705 12.5853 3.03176 12.2528 3.10432 11.932L3.10191 11.9477C3.34839 11.3544 4.03466 11.114 4.69919 10.8844C5.11724 10.7865 5.48092 10.5944 5.77935 10.331L5.77694 10.3334C5.91315 9.93776 5.9456 9.51382 5.87118 9.10208L5.87359 9.11658C5.80239 8.79453 5.79891 8.4612 5.86339 8.13773C5.92787 7.81427 6.0589 7.50775 6.24815 7.23763L6.24331 7.24487C6.42129 7.09821 6.62646 6.98813 6.84707 6.92095C7.06767 6.85377 7.29937 6.8308 7.52887 6.85337H7.52162C7.71494 6.85337 7.9143 6.86425 8.11366 6.87513C8.29973 6.886 8.48579 6.89687 8.66219 6.89687C8.89448 6.91815 9.12815 6.8751 9.3376 6.77242L9.33035 6.77604C9.59012 6.47879 9.78223 6.11629 9.87647 5.71513L9.88009 5.69821C10.1121 5.03363 10.3513 4.34488 10.9433 4.10079C11.0817 4.04406 11.23 4.01531 11.3795 4.01621H11.3928H11.3916C11.9184 4.07058 12.3968 4.23371 12.8185 4.48263L12.8016 4.47417C13.1504 4.70357 13.5552 4.83349 13.9724 4.84996H13.9772C14.2394 4.79921 14.5813 4.41496 14.8834 4.07662C15.3594 3.54617 15.8476 3 16.4988 3C17.15 3 17.6369 3.54617 18.1094 4.07542C18.4114 4.41375 18.7546 4.798 19.0155 4.84875C19.4372 4.82928 19.846 4.69746 20.1996 4.46692L20.1899 4.47296C20.6168 4.22218 21.0929 4.06677 21.5854 4.01742L21.6 4.01621H21.612C21.7691 4.01621 21.9189 4.04763 22.0555 4.10442L22.0482 4.102C22.6414 4.3485 22.8819 5.03483 23.1114 5.69942C23.2093 6.1175 23.4014 6.48 23.6636 6.77967L23.6612 6.77725C23.8706 6.87859 24.1039 6.91999 24.3354 6.89687H24.3306C24.507 6.89687 24.693 6.886 24.8791 6.87633C25.0797 6.86546 25.2802 6.85458 25.4711 6.85458C25.7006 6.83313 25.932 6.8571 26.1521 6.9251C26.3723 6.9931 26.5769 7.10382 26.7543 7.25092L26.7519 7.2485C26.9413 7.51984 27.0719 7.82786 27.1352 8.15272C27.1984 8.47758 27.193 8.81208 27.1192 9.13471L27.1216 9.119C27.0506 9.53229 27.0859 9.95685 27.2243 10.3527L27.2194 10.3358C27.5155 10.5968 27.8791 10.7889 28.2803 10.882L28.2972 10.8856C28.9617 11.1176 29.6504 11.3568 29.8945 11.9489C29.9638 12.2689 29.966 12.5997 29.9012 12.9206C29.8363 13.2415 29.7057 13.5455 29.5175 13.8134L29.5223 13.8061C29.301 14.1578 29.1722 14.5597 29.1478 14.9746V14.9818C29.1985 15.244 29.5827 15.586 29.921 15.8881C30.4539 16.363 31 16.8499 31 17.5012C31 18.1525 30.4539 18.6407 29.9247 19.1131C29.5864 19.4152 29.2022 19.7572 29.1514 20.0194C29.178 20.458 29.3145 20.8604 29.532 21.206L29.526 21.1951C29.7146 21.4643 29.8449 21.77 29.9083 22.0926C29.9718 22.4151 29.9671 22.7474 29.8945 23.068L29.8969 23.0523C29.6516 23.6468 28.9641 23.886 28.2996 24.1156C27.8992 24.2077 27.528 24.3978 27.2194 24.669L27.2219 24.6666C27.0856 25.0622 27.0532 25.4862 27.1276 25.8979L27.1252 25.8834C27.1962 26.2053 27.1996 26.5384 27.1351 26.8616C27.0707 27.1849 26.9397 27.4912 26.7506 27.7612L26.7555 27.7539C26.5778 27.9009 26.373 28.0113 26.1526 28.0789C25.9322 28.1465 25.7006 28.1699 25.4711 28.1478H25.4784C25.2851 28.1478 25.0857 28.137 24.8863 28.1261C24.7037 28.1136 24.5208 28.1063 24.3378 28.1043C24.1055 28.0826 23.8717 28.1257 23.6624 28.2288L23.6697 28.2252C23.4038 28.5289 23.2163 28.8932 23.1235 29.2861L23.1199 29.303C22.8879 29.9676 22.6487 30.6563 22.0567 30.9004C21.9183 30.9571 21.77 30.9859 21.6205 30.985H21.6072H21.6084C21.1048 30.9348 20.6182 30.7752 20.1827 30.5174L20.1984 30.5258C19.8497 30.2963 19.4448 30.1667 19.0276 30.1513H19.0228C18.7606 30.202 18.4187 30.5863 18.1166 30.9246C17.6394 31.4538 17.1524 32 16.5 32C15.8476 32 15.3618 31.4538 14.8882 30.9258H14.887ZM19.1545 11.8317L13.2583 22.5472C13.2415 22.5777 13.233 22.6121 13.2335 22.6469C13.234 22.6817 13.2436 22.7157 13.2613 22.7457C13.2789 22.7757 13.3041 22.8006 13.3343 22.8179C13.3645 22.8352 13.3987 22.8444 13.4335 22.8445H14.4569C14.4924 22.8445 14.5273 22.835 14.5579 22.8169C14.5886 22.7989 14.6137 22.7729 14.6309 22.7418V22.7405L20.5186 12.0238C20.5354 11.9933 20.5439 11.959 20.5434 11.9242C20.5429 11.8894 20.5333 11.8553 20.5156 11.8253C20.498 11.7953 20.4728 11.7705 20.4426 11.7531C20.4124 11.7358 20.3782 11.7267 20.3434 11.7266H19.3297C19.2939 11.7267 19.2587 11.7364 19.2279 11.7546C19.1971 11.7729 19.1717 11.7991 19.1545 11.8305V11.8317ZM18.3039 17.3284C18.1504 17.4554 18.0268 17.6147 17.942 17.7949C17.8572 17.9752 17.8132 18.172 17.8133 18.3712V21.2724C17.8133 21.6881 18.0042 22.059 18.3027 22.3031L18.3051 22.3055C18.6144 22.5641 19.0155 22.72 19.4541 22.72C19.8927 22.72 20.2938 22.5629 20.6056 22.3031L20.6032 22.3055C20.9052 22.0603 21.0961 21.6893 21.0961 21.2736V18.376V18.3736C21.0961 17.958 20.9088 17.5846 20.6152 17.3357L20.6128 17.3345C20.3066 17.0593 19.9093 16.9073 19.4976 16.9079H19.4602H19.4626H19.4251C19.0123 16.9073 18.6135 17.0577 18.3039 17.3308L18.3063 17.3296L18.3039 17.3284ZM13.1762 12.1241C13.0226 12.2511 12.899 12.4104 12.8142 12.5906C12.7294 12.7709 12.6855 12.9677 12.6856 13.1669V16.0669C12.6856 16.4838 12.8753 16.8572 13.1749 17.1025L13.1774 17.1049C13.4867 17.3671 13.889 17.5254 14.3288 17.5254C14.7686 17.5254 15.1722 17.3659 15.4827 17.1025L15.4803 17.1049C15.7847 16.8572 15.9768 16.4838 15.9768 16.0645V13.1718C15.9768 12.7525 15.7871 12.3791 15.4875 12.1302L15.4851 12.129C15.1624 11.8541 14.7524 11.7033 14.3286 11.7035C13.9048 11.7037 13.4949 11.855 13.1725 12.1302L13.1749 12.1278L13.1762 12.1241ZM19.1907 21.4295C19.1648 21.4088 19.1438 21.3825 19.1293 21.3526C19.1149 21.3227 19.1074 21.2899 19.1074 21.2567V18.3603V18.3555C19.1074 18.2854 19.14 18.2238 19.1895 18.1839C19.2522 18.1295 19.3324 18.0995 19.4155 18.0993H19.4312H19.43H19.4445C19.5277 18.0993 19.6082 18.1288 19.6716 18.1827C19.6974 18.2033 19.7183 18.2294 19.7327 18.259C19.7472 18.2887 19.7548 18.3213 19.755 18.3543V21.2567C19.755 21.2896 19.7476 21.3221 19.7334 21.3518C19.7192 21.3815 19.6985 21.4077 19.6728 21.4283C19.6076 21.4815 19.523 21.5129 19.4312 21.5129C19.3393 21.5129 19.2548 21.4815 19.1883 21.4271H19.1895L19.1907 21.4295ZM14.0678 16.2264C14.042 16.2056 14.0211 16.1793 14.0067 16.1494C13.9922 16.1195 13.9847 16.0868 13.9845 16.0536V13.1573V13.1536C13.9845 13.0835 14.0171 13.0219 14.0666 12.9808C14.1319 12.9277 14.2164 12.8962 14.3083 12.8962C14.4001 12.8962 14.4847 12.9277 14.5511 12.982H14.5499C14.5759 13.0027 14.5969 13.029 14.6113 13.0589C14.6257 13.0888 14.6333 13.1216 14.6333 13.1548V16.056C14.6332 16.0891 14.6258 16.1218 14.6116 16.1517C14.5974 16.1816 14.5767 16.2079 14.5511 16.2288C14.4859 16.282 14.4013 16.3134 14.3095 16.3134C14.2176 16.3134 14.1331 16.282 14.0666 16.2276H14.0678V16.2264Z" fill="#959595"/>
</svg>
