<svg width="34" height="35" viewBox="0 0 34 35" fill="none" xmlns="http://www.w3.org/2000/svg">
<path d="M6.84794 31.4006L0 25.2922L1.60837 23.4893L8.42488 29.5687L17.7174 20.5723C18.1502 20.1532 18.7286 19.918 19.3311 19.9162C19.9335 19.9144 20.5133 20.1461 20.9486 20.5626L25.3278 24.7485L32.0706 17.5308L33.8349 19.1802L27.0909 26.4003C26.873 26.6335 26.6111 26.8211 26.3202 26.9524C26.0293 27.0836 25.7153 27.1558 25.3963 27.1648C25.0774 27.1738 24.7598 27.1194 24.462 27.0047C24.1642 26.8901 23.8921 26.7175 23.6615 26.497L19.339 22.3655L10.0755 31.3318C9.64542 31.7483 9.07367 31.9868 8.47503 31.9994C7.87638 32.0119 7.29514 31.7976 6.84794 31.3994V31.4006Z" fill="#2091F9"/>
<path d="M33.8349 11.4587H29.0013L31.4181 7.8335L33.8349 11.4587Z" fill="#2091F9"/>
<path d="M24.1678 3H19.3342V5.41678H24.1678V7.83355H20.5426V10.2503H24.1678V12.6671H19.3342V15.0839H24.1678C24.8085 15.0829 25.4226 14.828 25.8756 14.375C26.3287 13.9219 26.5836 13.3078 26.5846 12.6671V5.41678C26.5839 4.776 26.3291 4.16166 25.876 3.70856C25.4229 3.25547 24.8086 3.00064 24.1678 3Z" fill="#2091F9"/>
<path d="M16.9174 15.0839H9.66711V10.2503C9.66775 9.60956 9.92258 8.99521 10.3757 8.54212C10.8288 8.08902 11.4431 7.83419 12.0839 7.83355H14.5007V5.41678H9.66711V3H14.5007C15.1414 3.00064 15.7558 3.25547 16.2089 3.70856C16.662 4.16166 16.9168 4.776 16.9174 5.41678V7.83355C16.9168 8.47433 16.662 9.08867 16.2089 9.54177C15.7558 9.99486 15.1414 10.2497 14.5007 10.2503H12.0839V12.6671H16.9174V15.0839Z" fill="#2091F9"/>
<path d="M4.83355 12.6671V3H2.41678V4.20839H0V6.62517H2.41678V12.6671H0V15.0839H7.25033V12.6671H4.83355Z" fill="#2091F9"/>
</svg>
