<svg width="34" height="34" viewBox="0 0 34 34" fill="none" xmlns="http://www.w3.org/2000/svg">
<path d="M5.23077 0V24.8462C5.23077 25.5719 4.64885 26.1538 3.92308 26.1538C3.19731 26.1538 2.61538 25.5719 2.61538 24.8462V9.15385H3.92308V6.53846H0V24.8462C0 26.9973 1.77192 28.7692 3.92308 28.7692H17C16.7385 27.9846 16.5907 27.0692 16.5907 26.1538H7.60292C7.752 25.7406 7.84746 25.3078 7.84746 24.8462V2.61538H28.7705V17C29.6859 17.2615 30.6013 17.6538 31.3859 18.3077V0H5.23077ZM10.4615 5.23077V10.4615H26.1538V5.23077H10.4615ZM10.4615 13.0769V15.6923H17V13.0769H10.4615ZM19.6154 13.0769V15.6923H26.1538V13.0769H19.6154ZM10.4615 17V19.6154H17V17H10.4615ZM26.1538 18.3077C21.8071 18.3077 18.3077 21.8071 18.3077 26.1538C18.3077 30.5006 21.8071 34 26.1538 34V31.3846C23.1775 31.3846 20.9231 29.1302 20.9231 26.1538C20.9231 23.1775 23.1775 20.9231 26.1538 20.9231C29.1302 20.9231 31.3846 23.1775 31.3846 26.1538C31.3846 27.2889 31.0616 28.3377 30.4849 29.1785L28.7692 27.4615L28.1154 33.3462L34 32.6923L32.3654 31.0577C33.4521 29.6925 34 27.9545 34 26.1538C34 21.8071 30.5006 18.3077 26.1538 18.3077ZM10.4615 20.9231V23.5385H17V20.9231H10.4615Z" fill="#AAAAAA"/>
</svg>
